<svg xmlns="http://www.w3.org/2000/svg" viewBox="0 0 1278.09 226.17"><defs><style>.cls-1{fill:#bb0a21;}</style></defs><g id="Layer_2" data-name="Layer 2"><g id="Layer_1-2" data-name="Layer 1"><path class="cls-1" d="M1173.09,168v-27.6h88.8v-51h-88.8V64.77h101.1V11.36h-170.7V159.27L1084.21,110l-88.29,34.51L939.46,0l-66,25.77,55,140.7H835.7V11.36H764.9V96.7C755.7,43.46,709.19,6.56,648.06,6.56c-48.65,0-88,23.38-106.73,59.77-10.5-34.31-44.16-55-92.21-55H323.27v95.41l-79.8-95.41h-58.2V168H69.6v-27.6h88.8v-51H69.6V64.77H170.7V11.36H0v210H254.27V126l79.8,95.4h84.75v-52.8H438l35.7,52.8h75.6l-44.1-64.8a73.28,73.28,0,0,0,25.86-21.45c8.82,53.72,55.51,91,117,91,61.13,0,107.64-36.9,116.84-90.14v85.34H930.5V171.58L950,221.37l153.53-60v60h174.6V168Zm-728.47-52.8h-25.8V66h25.8c19.5,0,28.8,9.3,28.8,24.6S464.12,115.17,444.62,115.17Zm203.44,53.7c-26.1,0-47.1-19.8-47.1-52.5s21-52.5,47.1-52.5,47.1,19.8,47.1,52.5S674.16,168.87,648.06,168.87Z"/></g></g></svg>